<?xml version="1.0" encoding="UTF-8" standalone="no"?>
<!-- Created with Inkscape (http://www.inkscape.org/) -->

<svg
   xmlns:dc="http://purl.org/dc/elements/1.1/"
   xmlns:cc="http://creativecommons.org/ns#"
   xmlns:rdf="http://www.w3.org/1999/02/22-rdf-syntax-ns#"
   xmlns:svg="http://www.w3.org/2000/svg"
   xmlns="http://www.w3.org/2000/svg"
   xmlns:sodipodi="http://sodipodi.sourceforge.net/DTD/sodipodi-0.dtd"
   xmlns:inkscape="http://www.inkscape.org/namespaces/inkscape"
   width="252"
   height="89.501228"
   viewBox="0 0 66.674999 23.680534"
   version="1.1"
   id="svg1219"
   inkscape:version="0.92.4 (5da689c313, 2019-01-14)"
   sodipodi:docname="AQA logo.svg">
  <defs
     id="defs1213">
    <clipPath
       id="clip1">
      <path
         inkscape:connector-curvature="0"
         d="M 56.691406,38 H 90 V 70 H 56.691406 Z m 0,0"
         id="path234" />
    </clipPath>
    <clipPath
       id="clip2">
      <path
         inkscape:connector-curvature="0"
         d="m 157,28.347656 h 27.25391 V 52 H 157 Z m 0,0"
         id="path237" />
    </clipPath>
    <clipPath
       id="clip3">
      <path
         inkscape:connector-curvature="0"
         d="m 157,28.347656 h 27.25391 V 57 H 157 Z m 0,0"
         id="path240" />
    </clipPath>
  </defs>
  <sodipodi:namedview
     id="base"
     pagecolor="#ffffff"
     bordercolor="#666666"
     borderopacity="1.0"
     inkscape:pageopacity="0.0"
     inkscape:pageshadow="2"
     inkscape:zoom="1.4"
     inkscape:cx="253.14939"
     inkscape:cy="-127.50114"
     inkscape:document-units="mm"
     inkscape:current-layer="layer1"
     showgrid="false"
     units="px"
     fit-margin-top="1"
     fit-margin-left="1"
     fit-margin-bottom="1"
     fit-margin-right="1"
     inkscape:window-width="1920"
     inkscape:window-height="1001"
     inkscape:window-x="-9"
     inkscape:window-y="-9"
     inkscape:window-maximized="1" />
  <metadata
     id="metadata1216">
    <rdf:RDF>
      <cc:Work
         rdf:about="">
        <dc:format>image/svg+xml</dc:format>
        <dc:type
           rdf:resource="http://purl.org/dc/dcmitype/StillImage" />
        <dc:title></dc:title>
      </cc:Work>
    </rdf:RDF>
  </metadata>
  <g
     inkscape:label="Layer 1"
     inkscape:groupmode="layer"
     id="layer1"
     transform="translate(-52.83005,-199.81652)">
    <g
       id="g1211"
       transform="matrix(0.51853673,0,0,0.51853673,23.698057,185.3818)">
      <path
         style="fill:#512e8f;fill-opacity:1;fill-rule:nonzero;stroke:none"
         d="m 104.71484,64.992188 c -5.476559,0 -9.917965,-4.652344 -9.917965,-10.390625 0,-5.742188 4.441406,-10.394532 9.917965,-10.394532 5.47657,0 9.91407,4.652344 9.91407,10.394532 0,2.609375 -0.91797,4.992187 -2.4336,6.816406 L 108.25,56.421875 c -0.35937,0 -0.78125,0.04297 -1.25781,0.128906 -0.48047,0.08203 -0.92969,0.234375 -1.35156,0.449219 -0.41797,0.214844 -0.76954,0.507813 -1.0586,0.878906 -0.28906,0.375 -0.42969,0.847657 -0.42969,1.421875 0,0.410157 0.14844,0.839844 0.44532,1.296875 0.30078,0.453125 0.62109,0.898438 0.95312,1.328125 l 2.03516,2.621094 c -0.91016,0.289063 -1.8711,0.445313 -2.8711,0.445313 m 16.2461,-10.375 c 0,-8.949219 -7.27344,-16.207032 -16.2461,-16.207032 -8.972652,0 -16.249996,7.257813 -16.249996,16.207032 0,8.953125 7.277344,16.207031 16.249996,16.207031 2.36719,0 4.61329,-0.507813 6.63672,-1.414063 l 1.90235,2.449219 c 0,0 2.51172,3.1875 6.29687,-1.117187 l -3.53906,-4.484375 c 3.05078,-2.945313 4.94922,-7.070313 4.94922,-11.640625"
         id="path392"
         inkscape:connector-curvature="0" />
      <g
         clip-path="url(#clip1)"
         id="g396"
         style="clip-rule:nonzero">
        <path
           style="fill:#512e8f;fill-opacity:1;fill-rule:nonzero;stroke:none"
           d="M 75.460938,38.746094 C 74.230469,38.027344 73.132813,37.980469 72.375,38.09375 c 0,0 -1.710937,0.246094 -2.855469,0.835938 -2.8125,5.796875 -12.828125,31.050781 -12.828125,31.050781 h 6.285157 c 3.386718,-9.878906 9.84375,-24.578125 9.84375,-24.578125 0.269531,0.246094 2.367187,5.566406 4.539062,11.191406 H 69.5 c -1.03125,5.640625 3.03125,5.636719 3.03125,5.636719 l 6.964844,-0.0625 c 1.65625,4.339844 2.964844,7.8125 2.964844,7.8125 h 6.765625 C 80,45.378906 76.898438,40.257813 76.898438,40.257813 c 0,0 -0.515625,-0.964844 -1.4375,-1.511719"
           id="path394"
           inkscape:connector-curvature="0" />
      </g>
      <path
         style="fill:#512e8f;fill-opacity:1;fill-rule:nonzero;stroke:none"
         d="M 153.35156,69.980469 C 144.125,45.378906 141.02344,40.257813 141.02344,40.257813 c 0,0 -0.51563,-0.960938 -1.4375,-1.511719 -1.23047,-0.71875 -2.32813,-0.765625 -3.08203,-0.652344 0,0 -1.71485,0.246094 -2.85938,0.835938 -2.8125,5.792968 -12.82812,31.050781 -12.82812,31.050781 h 6.28515 c 3.39063,-9.878906 9.84375,-24.578125 9.84375,-24.578125 0.26953,0.246094 2.36719,5.566406 4.53906,11.191406 h -7.85546 c -1.03516,5.640625 3.02343,5.636719 3.02343,5.636719 l 6.96875,-0.0625 c 1.65625,4.339844 2.96485,7.8125 2.96485,7.8125 z m 0,0"
         id="path398"
         inkscape:connector-curvature="0" />
      <g
         clip-path="url(#clip2)"
         id="g444"
         style="clip-rule:nonzero">
        <path
           style="fill:#e1114c;fill-opacity:1;fill-rule:nonzero;stroke:none"
           d="m 161.92187,28.347656 c -2.46484,0 -4.45703,2.09375 -4.45703,4.679688 l -0.004,18.691406 c 0.88281,-1.867187 2.39843,-4.992187 3.94922,-7.8125 5.70703,-11.675781 13.24218,-10.429687 18.26171,-11.695312 2.16407,-0.546875 3.81641,-2.953125 4.375,-3.863282 z m 0,0"
           id="path442"
           inkscape:connector-curvature="0" />
      </g>
      <g
         clip-path="url(#clip3)"
         id="g448"
         style="clip-rule:nonzero">
        <path
           style="fill:#e1114c;fill-opacity:1;fill-rule:nonzero;stroke:none"
           d="m 182.01562,40.398438 c -0.96875,2.445312 -2.89843,6.027343 -7.5,8.359375 -2.45312,1.242187 -6.07421,1.230468 -9.08984,0.90625 -3.41406,-0.222657 -5.68359,0.03125 -7.05469,3.695312 -0.42187,1.179688 -0.91015,3.109375 -0.91015,3.109375 h 22.32422 c 2.46093,0 4.45703,-2.097656 4.45703,-4.683594 l 0.0117,-23.4375 h -0.008 c -0.0469,1.796875 -0.33984,7.273438 -2.23047,12.050782"
           id="path446"
           inkscape:connector-curvature="0" />
      </g>
    </g>
  </g>
</svg>
